<?xml version="1.0" encoding="utf-8"?>
<!-- Generator: Adobe Illustrator 16.0.0, SVG Export Plug-In . SVG Version: 6.00 Build 0)  -->
<!DOCTYPE svg PUBLIC "-//W3C//DTD SVG 1.1//EN" "http://www.w3.org/Graphics/SVG/1.1/DTD/svg11.dtd">
<svg version="1.1" id="Layer_1" xmlns="http://www.w3.org/2000/svg" xmlns:xlink="http://www.w3.org/1999/xlink" x="0px" y="0px"
	 width="267px" height="72px" viewBox="0 0 267 72" style="enable-background:new 0 0 267 72;" xml:space="preserve">
<style type="text/css">
<![CDATA[
	.st0{fill:#B2A7C2;}
	.st1{fill-rule:evenodd;clip-rule:evenodd;fill:#B2A7C2;}
	.st2{fill:#B2A7C2;stroke:#FFFFFF;stroke-width:0.25;}
	.st3{fill:#D8D2E9;}
]]>
</style>
<g>
	<g>
		<path class="st3" d="M120.012,52.557c0,0.203-0.022,0.415-0.067,0.637c-0.046,0.221-0.119,0.438-0.221,0.649
			s-0.232,0.413-0.394,0.604c-0.161,0.189-0.359,0.358-0.593,0.505s-0.505,0.263-0.812,0.349c-0.309,0.085-0.671,0.127-1.087,0.127
			h-0.734l-0.451,2.251c-0.007,0.036-0.025,0.068-0.054,0.098c-0.029,0.029-0.075,0.052-0.137,0.07s-0.139,0.032-0.233,0.041
			c-0.094,0.009-0.21,0.014-0.348,0.014c-0.134,0-0.246-0.005-0.334-0.014c-0.089-0.009-0.159-0.022-0.21-0.041
			s-0.085-0.041-0.104-0.067c-0.018-0.027-0.021-0.062-0.011-0.101l1.267-6.333c0.033-0.17,0.104-0.298,0.212-0.383
			c0.109-0.086,0.243-0.128,0.402-0.128h1.538c0.188,0,0.357,0.006,0.506,0.019c0.148,0.014,0.296,0.034,0.44,0.062
			c0.221,0.044,0.419,0.111,0.595,0.201c0.176,0.091,0.325,0.204,0.449,0.34c0.123,0.137,0.217,0.296,0.282,0.479
			C119.979,52.118,120.012,52.325,120.012,52.557z M118.506,52.72c0-0.174-0.041-0.324-0.125-0.451
			c-0.083-0.127-0.212-0.216-0.386-0.266c-0.076-0.025-0.161-0.043-0.255-0.052c-0.095-0.009-0.2-0.014-0.315-0.014h-0.631
			l-0.468,2.386h0.652c0.207,0,0.384-0.024,0.53-0.073s0.275-0.113,0.386-0.192c0.11-0.08,0.205-0.175,0.283-0.283
			c0.077-0.108,0.141-0.223,0.189-0.343c0.05-0.119,0.085-0.239,0.106-0.361C118.495,52.949,118.506,52.832,118.506,52.72z"/>
		<path class="st3" d="M124.937,53.899c0,0.261-0.059,0.496-0.177,0.704c-0.117,0.208-0.301,0.388-0.549,0.538
			s-0.563,0.266-0.945,0.345c-0.383,0.08-0.839,0.12-1.367,0.12h-0.5c-0.015,0.083-0.025,0.166-0.033,0.247
			c-0.007,0.082-0.011,0.157-0.011,0.226c0,0.294,0.076,0.515,0.229,0.663c0.152,0.149,0.396,0.224,0.733,0.224
			c0.239,0,0.454-0.018,0.645-0.052c0.19-0.035,0.356-0.073,0.5-0.114c0.143-0.042,0.262-0.08,0.356-0.114
			c0.094-0.035,0.163-0.052,0.206-0.052c0.044,0,0.074,0.013,0.093,0.038c0.018,0.025,0.027,0.065,0.027,0.119
			c0,0.062-0.006,0.133-0.017,0.212c-0.011,0.08-0.026,0.159-0.047,0.237c-0.02,0.077-0.045,0.15-0.075,0.22
			c-0.031,0.068-0.066,0.121-0.106,0.157c-0.043,0.044-0.123,0.087-0.239,0.131c-0.116,0.043-0.256,0.083-0.419,0.119
			s-0.346,0.066-0.549,0.09s-0.409,0.036-0.619,0.036c-0.348,0-0.651-0.037-0.91-0.109c-0.26-0.072-0.477-0.183-0.65-0.331
			c-0.174-0.149-0.304-0.338-0.391-0.568c-0.088-0.23-0.131-0.503-0.131-0.818c0-0.242,0.022-0.503,0.068-0.78
			c0.045-0.276,0.118-0.551,0.22-0.82s0.231-0.528,0.392-0.774c0.159-0.246,0.353-0.463,0.579-0.649
			c0.226-0.187,0.488-0.336,0.785-0.449c0.297-0.111,0.636-0.168,1.017-0.168c0.329,0,0.613,0.039,0.851,0.117
			c0.237,0.077,0.432,0.181,0.584,0.31s0.266,0.275,0.34,0.44S124.937,53.726,124.937,53.899z M123.594,54.003
			c0-0.145-0.057-0.266-0.171-0.361s-0.28-0.145-0.497-0.145c-0.182,0-0.344,0.033-0.486,0.098c-0.144,0.065-0.27,0.153-0.378,0.264
			c-0.109,0.111-0.202,0.241-0.28,0.392s-0.141,0.311-0.188,0.481h0.457c0.289,0,0.532-0.02,0.729-0.058
			c0.195-0.038,0.353-0.09,0.473-0.154c0.119-0.065,0.206-0.143,0.261-0.231C123.566,54.199,123.594,54.104,123.594,54.003z"/>
		<path class="st3" d="M129.378,52.758c0,0.025-0.004,0.071-0.011,0.136c-0.008,0.065-0.019,0.142-0.033,0.229
			s-0.032,0.177-0.055,0.27c-0.021,0.092-0.046,0.178-0.073,0.258c-0.026,0.08-0.058,0.145-0.092,0.196
			c-0.035,0.05-0.072,0.075-0.111,0.075c-0.033,0-0.065-0.006-0.099-0.019c-0.032-0.013-0.068-0.025-0.108-0.038
			s-0.083-0.025-0.13-0.038c-0.048-0.013-0.102-0.02-0.163-0.02c-0.124,0-0.255,0.048-0.395,0.142
			c-0.14,0.095-0.272,0.219-0.399,0.373c-0.127,0.153-0.24,0.333-0.34,0.538c-0.1,0.204-0.171,0.419-0.215,0.644l-0.435,2.18
			c-0.008,0.036-0.024,0.068-0.052,0.096c-0.027,0.026-0.069,0.049-0.125,0.067c-0.057,0.019-0.13,0.032-0.22,0.041
			c-0.091,0.009-0.202,0.014-0.332,0.014c-0.134,0-0.244-0.005-0.329-0.014s-0.152-0.022-0.201-0.041s-0.08-0.041-0.095-0.067
			c-0.015-0.027-0.019-0.06-0.011-0.096l0.968-4.854c0.007-0.036,0.023-0.068,0.049-0.096c0.024-0.027,0.062-0.049,0.111-0.064
			c0.049-0.017,0.112-0.029,0.19-0.039c0.077-0.009,0.171-0.013,0.279-0.013c0.112,0,0.204,0.004,0.274,0.013
			c0.071,0.01,0.126,0.022,0.166,0.039c0.04,0.016,0.066,0.037,0.079,0.064s0.015,0.06,0.008,0.096l-0.152,0.771
			c0.087-0.155,0.188-0.299,0.302-0.43c0.114-0.13,0.235-0.243,0.364-0.339c0.129-0.097,0.262-0.172,0.399-0.226
			c0.138-0.055,0.273-0.082,0.408-0.082c0.054,0,0.109,0.004,0.165,0.011c0.057,0.007,0.109,0.017,0.158,0.027
			s0.092,0.024,0.13,0.041c0.038,0.016,0.068,0.033,0.09,0.052C129.367,52.677,129.378,52.711,129.378,52.758z"/>
		<path class="st3" d="M133.579,50.627c0,0.022-0.003,0.058-0.008,0.106c-0.006,0.049-0.013,0.104-0.021,0.166
			c-0.01,0.062-0.021,0.125-0.036,0.19c-0.015,0.064-0.031,0.125-0.052,0.182c-0.02,0.057-0.042,0.102-0.067,0.136
			s-0.053,0.052-0.082,0.052c-0.021,0-0.05-0.006-0.084-0.017s-0.073-0.022-0.117-0.035c-0.043-0.013-0.093-0.024-0.149-0.035
			c-0.056-0.011-0.116-0.017-0.182-0.017c-0.116,0-0.217,0.017-0.302,0.049c-0.085,0.033-0.158,0.084-0.22,0.155
			c-0.062,0.07-0.114,0.162-0.158,0.274c-0.043,0.112-0.08,0.246-0.108,0.402l-0.082,0.413h0.881c0.055,0,0.093,0.017,0.114,0.052
			c0.021,0.034,0.032,0.09,0.032,0.166c0,0.036-0.002,0.083-0.008,0.141c-0.006,0.059-0.016,0.121-0.03,0.188
			c-0.015,0.067-0.032,0.134-0.054,0.198c-0.022,0.065-0.046,0.126-0.071,0.18c-0.025,0.055-0.055,0.099-0.089,0.133
			c-0.035,0.035-0.072,0.052-0.112,0.052h-0.891l-0.854,4.262c-0.062,0.301-0.146,0.565-0.253,0.794
			c-0.107,0.229-0.242,0.419-0.405,0.573s-0.355,0.27-0.579,0.348c-0.223,0.078-0.476,0.117-0.758,0.117
			c-0.188,0-0.346-0.015-0.473-0.044c-0.127-0.028-0.209-0.058-0.245-0.086c-0.018-0.022-0.03-0.046-0.038-0.071
			c-0.007-0.025-0.011-0.062-0.011-0.108c0-0.022,0.003-0.059,0.008-0.109c0.006-0.051,0.014-0.105,0.025-0.165
			c0.011-0.061,0.024-0.123,0.04-0.188c0.017-0.064,0.035-0.124,0.055-0.179s0.043-0.099,0.067-0.134
			c0.026-0.034,0.055-0.051,0.088-0.051c0.021,0,0.043,0.001,0.064,0.005c0.022,0.004,0.046,0.009,0.071,0.014
			c0.025,0.006,0.055,0.01,0.09,0.014c0.034,0.004,0.078,0.006,0.133,0.006c0.116,0,0.217-0.018,0.302-0.052s0.158-0.088,0.22-0.161
			c0.062-0.072,0.114-0.165,0.158-0.279c0.043-0.114,0.081-0.253,0.114-0.416l0.82-4.088h-0.608c-0.044,0-0.077-0.015-0.101-0.046
			c-0.023-0.03-0.035-0.09-0.035-0.177c0-0.036,0.002-0.083,0.008-0.142c0.005-0.058,0.015-0.119,0.027-0.185
			c0.013-0.064,0.027-0.131,0.046-0.198c0.018-0.067,0.042-0.127,0.07-0.179c0.029-0.053,0.062-0.097,0.096-0.131
			c0.034-0.035,0.075-0.052,0.122-0.052h0.598l0.104-0.538c0.058-0.305,0.144-0.572,0.256-0.805
			c0.112-0.231,0.251-0.426,0.415-0.581c0.165-0.156,0.359-0.273,0.582-0.352c0.223-0.077,0.476-0.116,0.758-0.116
			c0.095,0,0.188,0.005,0.283,0.014c0.094,0.009,0.18,0.021,0.256,0.038c0.075,0.016,0.143,0.035,0.201,0.057
			c0.058,0.021,0.098,0.044,0.119,0.065c0.021,0.019,0.037,0.043,0.046,0.076C133.574,50.54,133.579,50.58,133.579,50.627z"/>
		<path class="st3" d="M138.064,54.465c0,0.261-0.025,0.529-0.074,0.805s-0.126,0.544-0.231,0.807
			c-0.104,0.263-0.239,0.51-0.404,0.74c-0.165,0.229-0.362,0.433-0.592,0.608c-0.23,0.176-0.495,0.314-0.792,0.416
			c-0.297,0.101-0.632,0.152-1.006,0.152c-0.365,0-0.682-0.043-0.948-0.128c-0.267-0.086-0.488-0.211-0.666-0.375
			c-0.178-0.165-0.31-0.368-0.396-0.609c-0.087-0.24-0.131-0.518-0.131-0.829c0-0.261,0.025-0.529,0.074-0.804
			c0.049-0.276,0.125-0.544,0.23-0.805c0.105-0.262,0.24-0.509,0.405-0.742s0.362-0.438,0.592-0.611
			c0.23-0.174,0.494-0.312,0.792-0.413c0.297-0.102,0.632-0.152,1.005-0.152c0.366,0,0.683,0.043,0.949,0.128
			c0.266,0.085,0.488,0.21,0.665,0.375c0.178,0.165,0.311,0.368,0.397,0.608C138.021,53.877,138.064,54.153,138.064,54.465z
			 M136.65,54.557c0-0.151-0.016-0.286-0.046-0.404c-0.031-0.117-0.081-0.218-0.152-0.299c-0.07-0.082-0.161-0.145-0.271-0.188
			c-0.111-0.044-0.246-0.065-0.405-0.065c-0.181,0-0.345,0.035-0.489,0.105c-0.146,0.071-0.274,0.166-0.389,0.286
			c-0.114,0.119-0.213,0.258-0.296,0.415c-0.084,0.158-0.152,0.324-0.207,0.498s-0.094,0.351-0.119,0.53
			c-0.025,0.179-0.038,0.351-0.038,0.514c0,0.151,0.015,0.287,0.046,0.407s0.081,0.22,0.152,0.302
			c0.07,0.081,0.161,0.145,0.271,0.188s0.246,0.065,0.405,0.065c0.182,0,0.345-0.036,0.489-0.106s0.274-0.167,0.389-0.288
			s0.213-0.261,0.296-0.418c0.084-0.158,0.152-0.325,0.207-0.5c0.055-0.176,0.094-0.353,0.119-0.53S136.65,54.72,136.65,54.557z"/>
		<path class="st3" d="M142.607,52.758c0,0.025-0.003,0.071-0.011,0.136c-0.007,0.065-0.018,0.142-0.032,0.229
			s-0.032,0.177-0.055,0.27c-0.021,0.092-0.046,0.178-0.073,0.258s-0.058,0.145-0.093,0.196c-0.034,0.05-0.071,0.075-0.111,0.075
			c-0.032,0-0.065-0.006-0.098-0.019s-0.068-0.025-0.108-0.038s-0.084-0.025-0.131-0.038s-0.101-0.02-0.163-0.02
			c-0.123,0-0.254,0.048-0.394,0.142c-0.14,0.095-0.273,0.219-0.399,0.373c-0.127,0.153-0.24,0.333-0.34,0.538
			c-0.1,0.204-0.171,0.419-0.215,0.644l-0.435,2.18c-0.008,0.036-0.024,0.068-0.052,0.096c-0.027,0.026-0.069,0.049-0.125,0.067
			c-0.057,0.019-0.13,0.032-0.221,0.041c-0.09,0.009-0.201,0.014-0.331,0.014c-0.134,0-0.244-0.005-0.329-0.014
			s-0.152-0.022-0.201-0.041s-0.08-0.041-0.095-0.067c-0.015-0.027-0.019-0.06-0.011-0.096l0.967-4.854
			c0.008-0.036,0.023-0.068,0.049-0.096s0.062-0.049,0.111-0.064c0.05-0.017,0.112-0.029,0.19-0.039
			c0.078-0.009,0.172-0.013,0.28-0.013c0.112,0,0.204,0.004,0.274,0.013c0.07,0.01,0.126,0.022,0.166,0.039
			c0.04,0.016,0.065,0.037,0.079,0.064c0.013,0.027,0.015,0.06,0.008,0.096l-0.152,0.771c0.087-0.155,0.188-0.299,0.302-0.43
			c0.114-0.13,0.235-0.243,0.364-0.339c0.129-0.097,0.262-0.172,0.399-0.226c0.138-0.055,0.273-0.082,0.407-0.082
			c0.055,0,0.109,0.004,0.166,0.011s0.109,0.017,0.158,0.027s0.092,0.024,0.13,0.041c0.038,0.016,0.068,0.033,0.09,0.052
			C142.597,52.677,142.607,52.711,142.607,52.758z"/>
		<path class="st3" d="M150.109,57.683c-0.008,0.036-0.025,0.068-0.052,0.096c-0.027,0.026-0.07,0.049-0.128,0.067
			c-0.059,0.019-0.132,0.032-0.221,0.041s-0.2,0.014-0.334,0.014c-0.13,0-0.239-0.005-0.326-0.014s-0.154-0.022-0.201-0.041
			s-0.078-0.041-0.095-0.067c-0.017-0.027-0.02-0.06-0.009-0.096l0.582-2.908c0.015-0.083,0.027-0.165,0.038-0.247
			c0.011-0.081,0.017-0.164,0.017-0.247c0-0.17-0.032-0.309-0.096-0.413c-0.063-0.105-0.177-0.158-0.34-0.158
			c-0.145,0-0.295,0.048-0.45,0.142c-0.156,0.094-0.306,0.222-0.449,0.383c-0.143,0.162-0.27,0.35-0.38,0.565
			c-0.111,0.216-0.189,0.445-0.237,0.688l-0.439,2.196c-0.008,0.036-0.024,0.068-0.052,0.096c-0.027,0.026-0.07,0.049-0.128,0.067
			c-0.059,0.019-0.131,0.032-0.22,0.041c-0.09,0.009-0.201,0.014-0.335,0.014c-0.13,0-0.238-0.005-0.323-0.014
			s-0.151-0.022-0.198-0.041s-0.079-0.041-0.095-0.067c-0.017-0.027-0.021-0.06-0.014-0.096l0.575-2.908
			c0.022-0.083,0.038-0.169,0.047-0.258s0.014-0.175,0.014-0.258c0-0.16-0.033-0.291-0.098-0.395
			c-0.065-0.104-0.178-0.155-0.338-0.155c-0.145,0-0.295,0.048-0.45,0.142c-0.156,0.094-0.306,0.222-0.449,0.383
			c-0.143,0.162-0.27,0.35-0.38,0.565s-0.189,0.445-0.237,0.688l-0.439,2.196c-0.008,0.036-0.024,0.068-0.052,0.096
			c-0.027,0.026-0.069,0.049-0.125,0.067c-0.057,0.019-0.13,0.032-0.221,0.041c-0.09,0.009-0.2,0.014-0.331,0.014
			c-0.134,0-0.244-0.005-0.329-0.014s-0.152-0.022-0.201-0.041s-0.08-0.041-0.095-0.067c-0.015-0.027-0.019-0.06-0.011-0.096
			l0.973-4.854c0.007-0.036,0.022-0.068,0.046-0.096s0.061-0.049,0.109-0.064c0.049-0.017,0.111-0.029,0.189-0.039
			c0.078-0.009,0.172-0.013,0.28-0.013c0.112,0,0.204,0.004,0.274,0.013c0.071,0.01,0.126,0.022,0.166,0.039
			c0.04,0.016,0.065,0.037,0.079,0.064c0.013,0.027,0.015,0.06,0.008,0.096l-0.158,0.799c0.076-0.127,0.178-0.257,0.305-0.389
			c0.127-0.133,0.271-0.251,0.433-0.356c0.161-0.104,0.337-0.19,0.527-0.258c0.189-0.067,0.387-0.101,0.59-0.101
			c0.21,0,0.392,0.028,0.546,0.084c0.154,0.057,0.28,0.135,0.381,0.233c0.1,0.101,0.176,0.217,0.229,0.352
			c0.052,0.134,0.085,0.278,0.1,0.435c0.084-0.131,0.189-0.261,0.318-0.392s0.273-0.248,0.435-0.354
			c0.161-0.104,0.336-0.19,0.524-0.258s0.383-0.101,0.582-0.101c0.254,0,0.467,0.035,0.639,0.105
			c0.172,0.071,0.311,0.169,0.416,0.294c0.104,0.125,0.181,0.271,0.228,0.44c0.048,0.169,0.071,0.351,0.071,0.546
			c0,0.127-0.007,0.255-0.022,0.384c-0.014,0.129-0.036,0.26-0.064,0.394L150.109,57.683z"/>
		<path class="st3" d="M155.952,57.688c-0.015,0.076-0.071,0.13-0.171,0.163c-0.1,0.032-0.26,0.049-0.481,0.049
			c-0.112,0-0.204-0.004-0.274-0.011c-0.07-0.008-0.128-0.02-0.171-0.036c-0.044-0.016-0.072-0.037-0.085-0.064
			s-0.015-0.061-0.008-0.101l0.152-0.777c-0.055,0.116-0.142,0.238-0.261,0.366c-0.12,0.129-0.261,0.246-0.424,0.351
			c-0.163,0.105-0.344,0.192-0.541,0.262c-0.197,0.068-0.401,0.104-0.611,0.104c-0.29,0-0.531-0.052-0.724-0.152
			c-0.191-0.102-0.346-0.238-0.462-0.411c-0.116-0.172-0.198-0.368-0.247-0.59c-0.049-0.221-0.073-0.452-0.073-0.695
			c0-0.229,0.021-0.478,0.065-0.747c0.043-0.271,0.11-0.539,0.201-0.808c0.09-0.268,0.206-0.526,0.348-0.774s0.311-0.469,0.508-0.66
			c0.197-0.192,0.424-0.346,0.68-0.46s0.545-0.171,0.867-0.171c0.301,0,0.567,0.062,0.799,0.188
			c0.232,0.125,0.435,0.307,0.608,0.546l0.087-0.429c0.015-0.076,0.072-0.131,0.172-0.163c0.1-0.033,0.26-0.049,0.48-0.049
			c0.109,0,0.199,0.004,0.272,0.013c0.072,0.01,0.129,0.022,0.171,0.039c0.042,0.016,0.07,0.037,0.084,0.064
			c0.015,0.027,0.019,0.06,0.011,0.096L155.952,57.688z M155.278,54.286c-0.127-0.2-0.268-0.35-0.421-0.449
			c-0.154-0.1-0.333-0.149-0.536-0.149c-0.152,0-0.292,0.036-0.418,0.109c-0.127,0.072-0.239,0.169-0.337,0.29
			s-0.185,0.262-0.259,0.421c-0.074,0.16-0.136,0.326-0.185,0.498s-0.085,0.346-0.108,0.521s-0.035,0.338-0.035,0.486
			c0,0.109,0.008,0.212,0.024,0.311c0.016,0.098,0.046,0.185,0.089,0.261c0.044,0.076,0.102,0.137,0.174,0.182
			c0.073,0.046,0.165,0.068,0.277,0.068c0.159,0,0.323-0.048,0.489-0.145c0.167-0.096,0.322-0.226,0.468-0.391
			c0.145-0.165,0.272-0.357,0.383-0.576c0.11-0.22,0.191-0.454,0.242-0.704L155.278,54.286z"/>
		<path class="st3" d="M162.54,53.916c0,0.127-0.008,0.253-0.024,0.38c-0.016,0.127-0.037,0.258-0.062,0.392l-0.604,2.995
			c-0.007,0.036-0.024,0.068-0.051,0.096c-0.027,0.026-0.069,0.049-0.126,0.067c-0.056,0.019-0.128,0.032-0.217,0.041
			s-0.2,0.014-0.335,0.014c-0.134,0-0.243-0.005-0.328-0.014c-0.086-0.009-0.151-0.022-0.198-0.041
			c-0.048-0.019-0.079-0.041-0.096-0.067c-0.017-0.027-0.021-0.06-0.014-0.096l0.587-2.908c0.019-0.087,0.032-0.176,0.041-0.267
			c0.009-0.09,0.014-0.17,0.014-0.238c0-0.163-0.034-0.298-0.104-0.402c-0.068-0.105-0.185-0.158-0.348-0.158
			c-0.148,0-0.304,0.048-0.465,0.142s-0.313,0.222-0.456,0.383c-0.144,0.162-0.271,0.35-0.384,0.565s-0.191,0.445-0.239,0.688
			l-0.439,2.196c-0.008,0.036-0.025,0.068-0.052,0.096c-0.027,0.026-0.069,0.049-0.125,0.067c-0.057,0.019-0.13,0.032-0.221,0.041
			s-0.201,0.014-0.331,0.014c-0.135,0-0.244-0.005-0.329-0.014s-0.152-0.022-0.201-0.041s-0.081-0.041-0.095-0.067
			c-0.015-0.027-0.019-0.06-0.012-0.096l0.974-4.854c0.007-0.036,0.022-0.068,0.046-0.096s0.06-0.049,0.108-0.064
			c0.049-0.017,0.112-0.029,0.19-0.039c0.078-0.009,0.171-0.013,0.28-0.013c0.112,0,0.203,0.004,0.274,0.013
			c0.07,0.01,0.126,0.022,0.166,0.039c0.04,0.016,0.065,0.037,0.079,0.064c0.012,0.027,0.015,0.06,0.008,0.096l-0.158,0.799
			c0.076-0.127,0.178-0.257,0.305-0.389c0.127-0.133,0.272-0.251,0.438-0.356c0.165-0.104,0.344-0.19,0.538-0.258
			s0.396-0.101,0.606-0.101c0.253,0,0.467,0.037,0.639,0.111s0.312,0.175,0.418,0.302c0.107,0.127,0.185,0.274,0.231,0.442
			C162.517,53.549,162.54,53.728,162.54,53.916z"/>
		<path class="st3" d="M167.645,53.155c0,0.083-0.01,0.177-0.03,0.282c-0.02,0.105-0.046,0.205-0.079,0.299
			c-0.032,0.095-0.072,0.173-0.122,0.236c-0.049,0.063-0.103,0.096-0.16,0.096c-0.054,0-0.106-0.022-0.157-0.065
			s-0.113-0.093-0.188-0.146c-0.074-0.055-0.168-0.104-0.28-0.15c-0.112-0.045-0.257-0.067-0.435-0.067
			c-0.188,0-0.357,0.042-0.506,0.125s-0.278,0.191-0.389,0.323c-0.11,0.133-0.202,0.283-0.274,0.451
			c-0.072,0.169-0.132,0.339-0.18,0.511c-0.047,0.173-0.08,0.337-0.101,0.495c-0.02,0.157-0.029,0.294-0.029,0.41
			c0,0.294,0.064,0.517,0.192,0.669c0.129,0.151,0.331,0.229,0.606,0.229c0.203,0,0.377-0.026,0.521-0.079
			c0.146-0.053,0.27-0.11,0.372-0.174c0.104-0.063,0.192-0.121,0.267-0.172s0.143-0.076,0.204-0.076
			c0.036,0,0.062,0.017,0.079,0.049c0.016,0.033,0.024,0.08,0.024,0.142s-0.008,0.139-0.022,0.231
			c-0.014,0.093-0.033,0.186-0.057,0.279c-0.023,0.095-0.051,0.183-0.081,0.264c-0.031,0.082-0.071,0.146-0.12,0.193
			s-0.126,0.101-0.23,0.16c-0.105,0.061-0.227,0.113-0.364,0.161c-0.138,0.046-0.287,0.085-0.449,0.113
			c-0.161,0.029-0.328,0.044-0.502,0.044c-0.62,0-1.084-0.157-1.392-0.47c-0.309-0.313-0.462-0.776-0.462-1.39
			c0-0.221,0.021-0.464,0.062-0.729c0.041-0.265,0.109-0.529,0.203-0.796c0.095-0.267,0.217-0.524,0.367-0.774
			s0.334-0.472,0.552-0.663c0.218-0.192,0.47-0.347,0.756-0.462c0.286-0.116,0.615-0.175,0.989-0.175
			c0.145,0,0.286,0.012,0.424,0.033s0.265,0.052,0.381,0.09c0.115,0.038,0.218,0.082,0.307,0.133s0.155,0.097,0.198,0.139
			s0.071,0.079,0.084,0.111S167.645,53.107,167.645,53.155z"/>
		<path class="st3" d="M172.748,53.899c0,0.261-0.059,0.496-0.177,0.704c-0.117,0.208-0.3,0.388-0.549,0.538
			c-0.248,0.15-0.563,0.266-0.945,0.345c-0.383,0.08-0.838,0.12-1.367,0.12h-0.5c-0.015,0.083-0.025,0.166-0.032,0.247
			c-0.008,0.082-0.012,0.157-0.012,0.226c0,0.294,0.076,0.515,0.229,0.663c0.152,0.149,0.396,0.224,0.733,0.224
			c0.239,0,0.454-0.018,0.645-0.052c0.19-0.035,0.357-0.073,0.5-0.114c0.144-0.042,0.262-0.08,0.356-0.114
			c0.094-0.035,0.163-0.052,0.206-0.052c0.044,0,0.074,0.013,0.093,0.038c0.018,0.025,0.027,0.065,0.027,0.119
			c0,0.062-0.006,0.133-0.017,0.212c-0.011,0.08-0.026,0.159-0.046,0.237c-0.021,0.077-0.046,0.15-0.076,0.22
			c-0.031,0.068-0.066,0.121-0.106,0.157c-0.044,0.044-0.123,0.087-0.239,0.131c-0.115,0.043-0.255,0.083-0.418,0.119
			s-0.347,0.066-0.549,0.09c-0.203,0.023-0.41,0.036-0.62,0.036c-0.348,0-0.651-0.037-0.911-0.109
			c-0.259-0.072-0.475-0.183-0.649-0.331c-0.173-0.149-0.304-0.338-0.391-0.568s-0.131-0.503-0.131-0.818
			c0-0.242,0.022-0.503,0.068-0.78c0.045-0.276,0.118-0.551,0.22-0.82s0.232-0.528,0.392-0.774s0.353-0.463,0.579-0.649
			s0.488-0.336,0.785-0.449c0.297-0.111,0.636-0.168,1.017-0.168c0.33,0,0.613,0.039,0.851,0.117
			c0.237,0.077,0.432,0.181,0.584,0.31s0.266,0.275,0.34,0.44S172.748,53.726,172.748,53.899z M171.405,54.003
			c0-0.145-0.057-0.266-0.171-0.361s-0.28-0.145-0.497-0.145c-0.182,0-0.344,0.033-0.486,0.098c-0.144,0.065-0.27,0.153-0.378,0.264
			c-0.108,0.111-0.202,0.241-0.28,0.392s-0.141,0.311-0.188,0.481h0.457c0.29,0,0.532-0.02,0.728-0.058
			c0.196-0.038,0.354-0.09,0.474-0.154c0.119-0.065,0.206-0.143,0.261-0.231S171.405,54.104,171.405,54.003z"/>
		<path class="st3" d="M183.962,57.678c-0.011,0.036-0.027,0.068-0.049,0.098s-0.06,0.052-0.111,0.07
			c-0.053,0.019-0.124,0.032-0.215,0.041s-0.203,0.014-0.337,0.014c-0.142,0-0.256-0.005-0.343-0.014s-0.154-0.022-0.201-0.041
			s-0.077-0.041-0.09-0.07s-0.016-0.062-0.008-0.098l1.142-5.724h-0.012l-3.189,5.718c-0.044,0.091-0.128,0.151-0.254,0.182
			c-0.124,0.031-0.301,0.047-0.529,0.047c-0.235,0-0.405-0.021-0.508-0.062c-0.104-0.042-0.157-0.094-0.161-0.155l-0.826-5.734
			h-0.011l-1.147,5.729c-0.007,0.036-0.022,0.068-0.046,0.098s-0.062,0.052-0.114,0.07c-0.052,0.019-0.123,0.032-0.212,0.041
			s-0.202,0.014-0.339,0.014c-0.139,0-0.251-0.005-0.338-0.014s-0.154-0.022-0.2-0.041c-0.048-0.019-0.078-0.041-0.093-0.07
			s-0.017-0.062-0.006-0.098l1.25-6.268c0.019-0.091,0.047-0.172,0.085-0.245c0.038-0.072,0.085-0.133,0.141-0.182
			c0.057-0.049,0.121-0.086,0.193-0.111s0.15-0.038,0.233-0.038h0.892c0.159,0,0.295,0.014,0.408,0.041
			c0.111,0.026,0.204,0.073,0.277,0.138c0.072,0.065,0.127,0.15,0.165,0.256s0.064,0.232,0.079,0.381l0.68,4.186h0.027l2.413-4.186
			c0.072-0.142,0.145-0.264,0.217-0.367c0.073-0.104,0.153-0.188,0.242-0.256c0.089-0.066,0.188-0.115,0.296-0.146
			c0.109-0.03,0.237-0.046,0.387-0.046h1.011c0.091,0,0.169,0.013,0.233,0.038c0.065,0.025,0.117,0.062,0.155,0.111
			s0.062,0.108,0.07,0.18c0.01,0.07,0.007,0.151-0.008,0.241L183.962,57.678z"/>
		<path class="st3" d="M189.913,57.688c-0.014,0.076-0.071,0.13-0.171,0.163c-0.1,0.032-0.26,0.049-0.48,0.049
			c-0.112,0-0.204-0.004-0.274-0.011c-0.071-0.008-0.128-0.02-0.172-0.036c-0.043-0.016-0.071-0.037-0.084-0.064
			s-0.016-0.061-0.009-0.101l0.153-0.777c-0.055,0.116-0.142,0.238-0.262,0.366c-0.119,0.129-0.261,0.246-0.424,0.351
			c-0.163,0.105-0.343,0.192-0.541,0.262c-0.197,0.068-0.401,0.104-0.611,0.104c-0.29,0-0.53-0.052-0.723-0.152
			c-0.192-0.102-0.347-0.238-0.462-0.411c-0.116-0.172-0.199-0.368-0.248-0.59c-0.049-0.221-0.073-0.452-0.073-0.695
			c0-0.229,0.022-0.478,0.065-0.747c0.044-0.271,0.11-0.539,0.201-0.808c0.091-0.268,0.207-0.526,0.348-0.774
			c0.142-0.248,0.311-0.469,0.509-0.66c0.197-0.192,0.424-0.346,0.679-0.46c0.256-0.114,0.545-0.171,0.867-0.171
			c0.301,0,0.567,0.062,0.799,0.188c0.232,0.125,0.436,0.307,0.609,0.546l0.087-0.429c0.015-0.076,0.071-0.131,0.171-0.163
			c0.1-0.033,0.261-0.049,0.481-0.049c0.108,0,0.199,0.004,0.271,0.013c0.072,0.01,0.13,0.022,0.171,0.039
			c0.042,0.016,0.07,0.037,0.085,0.064s0.018,0.06,0.011,0.096L189.913,57.688z M189.239,54.286c-0.126-0.2-0.267-0.35-0.421-0.449
			s-0.332-0.149-0.535-0.149c-0.152,0-0.292,0.036-0.419,0.109c-0.127,0.072-0.239,0.169-0.337,0.29s-0.184,0.262-0.258,0.421
			c-0.074,0.16-0.136,0.326-0.186,0.498c-0.049,0.172-0.085,0.346-0.108,0.521s-0.035,0.338-0.035,0.486
			c0,0.109,0.008,0.212,0.024,0.311c0.017,0.098,0.046,0.185,0.09,0.261c0.043,0.076,0.102,0.137,0.174,0.182
			c0.072,0.046,0.165,0.068,0.277,0.068c0.159,0,0.322-0.048,0.489-0.145c0.166-0.096,0.322-0.226,0.467-0.391
			c0.146-0.165,0.273-0.357,0.384-0.576c0.11-0.22,0.191-0.454,0.242-0.704L189.239,54.286z"/>
		<path class="st3" d="M195.312,52.758c0,0.025-0.004,0.071-0.012,0.136c-0.007,0.065-0.018,0.142-0.032,0.229
			c-0.014,0.087-0.032,0.177-0.054,0.27c-0.022,0.092-0.047,0.178-0.074,0.258c-0.026,0.08-0.058,0.145-0.092,0.196
			c-0.035,0.05-0.071,0.075-0.111,0.075c-0.033,0-0.065-0.006-0.099-0.019c-0.032-0.013-0.068-0.025-0.108-0.038
			s-0.083-0.025-0.131-0.038c-0.047-0.013-0.101-0.02-0.162-0.02c-0.124,0-0.255,0.048-0.395,0.142
			c-0.14,0.095-0.272,0.219-0.399,0.373c-0.127,0.153-0.24,0.333-0.34,0.538c-0.1,0.204-0.171,0.419-0.215,0.644l-0.435,2.18
			c-0.008,0.036-0.024,0.068-0.052,0.096c-0.027,0.026-0.068,0.049-0.125,0.067s-0.13,0.032-0.22,0.041
			c-0.091,0.009-0.201,0.014-0.332,0.014c-0.134,0-0.244-0.005-0.329-0.014s-0.152-0.022-0.201-0.041s-0.08-0.041-0.095-0.067
			c-0.015-0.027-0.019-0.06-0.011-0.096l0.968-4.854c0.007-0.036,0.023-0.068,0.049-0.096s0.062-0.049,0.111-0.064
			c0.049-0.017,0.112-0.029,0.189-0.039c0.078-0.009,0.172-0.013,0.28-0.013c0.112,0,0.204,0.004,0.274,0.013
			c0.071,0.01,0.126,0.022,0.166,0.039c0.04,0.016,0.066,0.037,0.079,0.064s0.016,0.06,0.008,0.096l-0.152,0.771
			c0.088-0.155,0.188-0.299,0.302-0.43c0.114-0.13,0.236-0.243,0.364-0.339c0.129-0.097,0.262-0.172,0.399-0.226
			c0.138-0.055,0.274-0.082,0.408-0.082c0.054,0,0.109,0.004,0.166,0.011c0.056,0.007,0.108,0.017,0.157,0.027
			s0.092,0.024,0.131,0.041c0.038,0.016,0.067,0.033,0.089,0.052C195.3,52.677,195.312,52.711,195.312,52.758z"/>
		<path class="st3" d="M200.508,52.812c0,0.058-0.024,0.126-0.073,0.204c-0.049,0.077-0.13,0.177-0.242,0.296l-1.712,1.614
			l1.114,2.337c0.036,0.088,0.062,0.163,0.076,0.229c0.014,0.065,0.021,0.116,0.021,0.152c0,0.044-0.012,0.082-0.035,0.114
			c-0.024,0.032-0.063,0.06-0.12,0.082c-0.056,0.021-0.132,0.037-0.228,0.046c-0.097,0.009-0.217,0.014-0.361,0.014
			c-0.146,0-0.263-0.004-0.352-0.011c-0.089-0.008-0.157-0.021-0.206-0.038c-0.049-0.019-0.085-0.042-0.108-0.071
			c-0.024-0.028-0.041-0.064-0.052-0.108l-1.147-2.555l-0.511,2.565c-0.011,0.036-0.03,0.068-0.057,0.096
			c-0.027,0.026-0.069,0.049-0.125,0.067c-0.057,0.019-0.13,0.032-0.221,0.041s-0.201,0.014-0.332,0.014
			c-0.134,0-0.243-0.005-0.328-0.014s-0.151-0.021-0.198-0.038c-0.048-0.017-0.079-0.038-0.096-0.065
			c-0.016-0.027-0.021-0.059-0.014-0.095l1.436-7.153c0.007-0.036,0.023-0.069,0.049-0.098c0.025-0.029,0.067-0.054,0.125-0.074
			c0.058-0.02,0.131-0.035,0.22-0.046s0.2-0.016,0.335-0.016c0.134,0,0.243,0.005,0.329,0.016c0.085,0.011,0.15,0.026,0.198,0.046
			c0.047,0.021,0.077,0.045,0.092,0.074c0.015,0.028,0.019,0.062,0.011,0.098l-0.848,4.256l1.815-1.94
			c0.036-0.044,0.075-0.081,0.117-0.111c0.041-0.031,0.095-0.056,0.16-0.073c0.065-0.019,0.144-0.031,0.236-0.038
			c0.093-0.008,0.207-0.011,0.345-0.011c0.135,0,0.247,0.003,0.338,0.011c0.09,0.007,0.16,0.019,0.212,0.035
			c0.05,0.016,0.086,0.037,0.105,0.062C200.498,52.751,200.508,52.779,200.508,52.812z"/>
		<path class="st3" d="M205.285,53.899c0,0.261-0.059,0.496-0.176,0.704c-0.118,0.208-0.301,0.388-0.549,0.538
			c-0.249,0.15-0.564,0.266-0.946,0.345c-0.382,0.08-0.838,0.12-1.367,0.12h-0.5c-0.015,0.083-0.025,0.166-0.032,0.247
			c-0.008,0.082-0.011,0.157-0.011,0.226c0,0.294,0.075,0.515,0.228,0.663c0.152,0.149,0.397,0.224,0.734,0.224
			c0.238,0,0.453-0.018,0.644-0.052c0.19-0.035,0.357-0.073,0.501-0.114c0.143-0.042,0.261-0.08,0.355-0.114
			c0.094-0.035,0.163-0.052,0.206-0.052c0.044,0,0.074,0.013,0.093,0.038c0.018,0.025,0.027,0.065,0.027,0.119
			c0,0.062-0.006,0.133-0.017,0.212c-0.011,0.08-0.026,0.159-0.046,0.237c-0.02,0.077-0.046,0.15-0.076,0.22
			c-0.031,0.068-0.066,0.121-0.106,0.157c-0.043,0.044-0.123,0.087-0.238,0.131c-0.116,0.043-0.256,0.083-0.419,0.119
			s-0.347,0.066-0.549,0.09c-0.203,0.023-0.41,0.036-0.62,0.036c-0.348,0-0.651-0.037-0.91-0.109
			c-0.26-0.072-0.476-0.183-0.649-0.331c-0.174-0.149-0.305-0.338-0.392-0.568s-0.131-0.503-0.131-0.818
			c0-0.242,0.023-0.503,0.068-0.78c0.045-0.276,0.119-0.551,0.221-0.82c0.101-0.27,0.231-0.528,0.391-0.774
			c0.16-0.246,0.353-0.463,0.579-0.649s0.488-0.336,0.785-0.449c0.297-0.111,0.636-0.168,1.017-0.168
			c0.33,0,0.613,0.039,0.851,0.117c0.237,0.077,0.433,0.181,0.585,0.31s0.265,0.275,0.339,0.44S205.285,53.726,205.285,53.899z
			 M203.943,54.003c0-0.145-0.058-0.266-0.172-0.361s-0.279-0.145-0.497-0.145c-0.182,0-0.344,0.033-0.486,0.098
			c-0.144,0.065-0.269,0.153-0.378,0.264c-0.108,0.111-0.202,0.241-0.279,0.392c-0.078,0.15-0.141,0.311-0.188,0.481h0.457
			c0.29,0,0.532-0.02,0.729-0.058c0.195-0.038,0.354-0.09,0.473-0.154c0.119-0.065,0.207-0.143,0.261-0.231
			C203.916,54.199,203.943,54.104,203.943,54.003z"/>
		<path class="st3" d="M210.771,57.683c-0.008,0.036-0.024,0.068-0.052,0.096c-0.027,0.026-0.069,0.049-0.125,0.067
			c-0.057,0.019-0.129,0.032-0.218,0.041s-0.2,0.014-0.334,0.014c-0.131,0-0.239-0.005-0.326-0.014s-0.155-0.022-0.204-0.041
			s-0.081-0.041-0.098-0.067c-0.017-0.027-0.019-0.06-0.008-0.096l0.782-3.925h-2.18l-0.456,2.278
			c-0.012,0.054-0.021,0.118-0.03,0.192s-0.014,0.135-0.014,0.183c0,0.145,0.034,0.251,0.104,0.317
			c0.068,0.067,0.178,0.101,0.326,0.101c0.087,0,0.161-0.006,0.223-0.019s0.115-0.027,0.16-0.044
			c0.046-0.016,0.084-0.03,0.117-0.043c0.032-0.013,0.063-0.02,0.093-0.02c0.028,0,0.053,0.014,0.073,0.041
			c0.02,0.027,0.029,0.071,0.029,0.133c0,0.069-0.007,0.147-0.021,0.234s-0.033,0.171-0.057,0.252
			c-0.023,0.082-0.05,0.156-0.079,0.224c-0.029,0.066-0.06,0.116-0.093,0.149c-0.032,0.032-0.081,0.063-0.146,0.093
			c-0.065,0.028-0.143,0.054-0.231,0.075c-0.088,0.022-0.184,0.039-0.285,0.052s-0.203,0.02-0.304,0.02
			c-0.218,0-0.409-0.022-0.574-0.068c-0.165-0.045-0.303-0.117-0.416-0.215c-0.112-0.098-0.196-0.223-0.252-0.375
			c-0.057-0.152-0.085-0.337-0.085-0.555c0-0.039,0.002-0.086,0.006-0.138c0.004-0.053,0.01-0.108,0.02-0.166
			c0.009-0.058,0.018-0.117,0.026-0.177c0.01-0.06,0.02-0.113,0.03-0.16l0.473-2.365h-0.587c-0.047,0-0.081-0.015-0.104-0.046
			c-0.021-0.03-0.032-0.09-0.032-0.177c0-0.062,0.006-0.142,0.019-0.241s0.034-0.198,0.062-0.294
			c0.029-0.096,0.067-0.179,0.114-0.247c0.048-0.069,0.104-0.104,0.169-0.104h0.581l0.218-1.082
			c0.007-0.036,0.024-0.068,0.052-0.098s0.068-0.053,0.125-0.073c0.056-0.02,0.129-0.034,0.218-0.044
			c0.088-0.009,0.2-0.014,0.334-0.014c0.13,0,0.239,0.005,0.326,0.014c0.087,0.01,0.154,0.024,0.204,0.044
			c0.049,0.021,0.08,0.044,0.095,0.073s0.019,0.062,0.011,0.098l-0.217,1.082h3.136c0.152,0,0.252,0.032,0.299,0.098
			s0.058,0.16,0.033,0.283L210.771,57.683z M212.167,51.203c-0.025,0.135-0.06,0.248-0.104,0.34
			c-0.043,0.093-0.101,0.167-0.171,0.223c-0.07,0.057-0.159,0.097-0.266,0.12c-0.107,0.023-0.237,0.035-0.389,0.035
			c-0.152,0-0.277-0.012-0.373-0.035s-0.168-0.063-0.217-0.12c-0.049-0.056-0.077-0.13-0.085-0.223
			c-0.007-0.092,0.002-0.205,0.027-0.34c0.029-0.13,0.064-0.24,0.106-0.331c0.041-0.091,0.099-0.165,0.171-0.223
			c0.072-0.059,0.161-0.1,0.267-0.126c0.104-0.024,0.235-0.037,0.391-0.037c0.152,0,0.277,0.013,0.373,0.037
			c0.096,0.026,0.168,0.067,0.217,0.126c0.05,0.058,0.076,0.132,0.082,0.223S212.192,51.073,212.167,51.203z"/>
		<path class="st3" d="M217.358,53.916c0,0.127-0.009,0.253-0.024,0.38c-0.017,0.127-0.037,0.258-0.062,0.392l-0.604,2.995
			c-0.007,0.036-0.024,0.068-0.052,0.096c-0.027,0.026-0.069,0.049-0.125,0.067s-0.129,0.032-0.218,0.041s-0.199,0.014-0.334,0.014
			c-0.134,0-0.243-0.005-0.328-0.014c-0.086-0.009-0.152-0.022-0.199-0.041s-0.078-0.041-0.095-0.067
			c-0.017-0.027-0.021-0.06-0.014-0.096l0.587-2.908c0.018-0.087,0.031-0.176,0.041-0.267c0.009-0.09,0.014-0.17,0.014-0.238
			c0-0.163-0.034-0.298-0.104-0.402c-0.068-0.105-0.185-0.158-0.348-0.158c-0.148,0-0.304,0.048-0.465,0.142
			s-0.313,0.222-0.457,0.383c-0.143,0.162-0.271,0.35-0.383,0.565s-0.192,0.445-0.239,0.688l-0.44,2.196
			c-0.007,0.036-0.024,0.068-0.052,0.096c-0.027,0.026-0.068,0.049-0.125,0.067c-0.056,0.019-0.129,0.032-0.22,0.041
			s-0.201,0.014-0.332,0.014c-0.134,0-0.243-0.005-0.329-0.014c-0.085-0.009-0.151-0.022-0.2-0.041s-0.081-0.041-0.096-0.067
			c-0.015-0.027-0.018-0.06-0.011-0.096l0.973-4.854c0.008-0.036,0.022-0.068,0.047-0.096c0.023-0.027,0.06-0.049,0.108-0.064
			c0.049-0.017,0.112-0.029,0.19-0.039c0.077-0.009,0.171-0.013,0.279-0.013c0.113,0,0.204,0.004,0.274,0.013
			c0.071,0.01,0.126,0.022,0.166,0.039c0.04,0.016,0.066,0.037,0.079,0.064s0.016,0.06,0.008,0.096l-0.157,0.799
			c0.076-0.127,0.178-0.257,0.305-0.389c0.127-0.133,0.272-0.251,0.438-0.356c0.165-0.104,0.344-0.19,0.538-0.258
			c0.193-0.067,0.396-0.101,0.605-0.101c0.254,0,0.467,0.037,0.64,0.111c0.172,0.074,0.311,0.175,0.418,0.302
			c0.106,0.127,0.184,0.274,0.23,0.442C217.335,53.549,217.358,53.728,217.358,53.916z"/>
		<path class="st3" d="M222.474,57.879c-0.065,0.329-0.167,0.616-0.305,0.861c-0.138,0.244-0.319,0.449-0.544,0.614
			s-0.497,0.289-0.817,0.372c-0.321,0.083-0.695,0.125-1.123,0.125c-0.308,0-0.584-0.024-0.829-0.073
			c-0.244-0.049-0.448-0.111-0.611-0.188c-0.058-0.029-0.098-0.062-0.119-0.098c-0.022-0.036-0.033-0.088-0.033-0.152
			c0-0.021,0.002-0.059,0.006-0.108c0.004-0.052,0.012-0.107,0.024-0.169s0.028-0.126,0.046-0.193
			c0.019-0.066,0.041-0.127,0.068-0.179c0.027-0.053,0.057-0.097,0.09-0.131c0.032-0.034,0.07-0.052,0.114-0.052
			c0.043,0,0.097,0.016,0.16,0.046c0.063,0.031,0.147,0.064,0.252,0.101c0.105,0.036,0.236,0.07,0.392,0.101
			c0.156,0.031,0.349,0.047,0.576,0.047c0.186,0,0.351-0.015,0.498-0.044c0.146-0.029,0.274-0.076,0.383-0.142
			c0.108-0.064,0.196-0.148,0.264-0.249c0.067-0.102,0.115-0.228,0.145-0.375c0.047-0.236,0.094-0.434,0.141-0.593
			c0.048-0.16,0.091-0.29,0.131-0.392c-0.065,0.119-0.158,0.238-0.28,0.355c-0.121,0.118-0.26,0.225-0.416,0.318
			c-0.155,0.095-0.323,0.17-0.502,0.226c-0.18,0.056-0.36,0.085-0.541,0.085c-0.279,0-0.514-0.048-0.704-0.142
			c-0.19-0.095-0.346-0.225-0.465-0.392s-0.206-0.362-0.259-0.587c-0.052-0.225-0.078-0.468-0.078-0.729
			c0-0.235,0.021-0.489,0.065-0.761c0.043-0.272,0.111-0.542,0.203-0.811c0.093-0.268,0.21-0.525,0.351-0.771
			c0.142-0.246,0.312-0.465,0.509-0.655s0.424-0.341,0.68-0.454c0.255-0.111,0.542-0.168,0.861-0.168
			c0.301,0,0.567,0.062,0.799,0.188c0.232,0.125,0.435,0.307,0.608,0.546l0.087-0.429c0.015-0.076,0.072-0.131,0.172-0.163
			c0.1-0.033,0.26-0.049,0.48-0.049c0.109,0,0.199,0.004,0.272,0.013c0.072,0.01,0.129,0.022,0.171,0.039
			c0.042,0.016,0.069,0.037,0.084,0.064s0.019,0.06,0.011,0.096L222.474,57.879z M221.843,54.28
			c-0.127-0.199-0.268-0.349-0.421-0.448c-0.154-0.1-0.333-0.149-0.536-0.149c-0.152,0-0.29,0.036-0.416,0.108
			c-0.124,0.072-0.237,0.169-0.336,0.29c-0.101,0.122-0.188,0.263-0.262,0.422s-0.136,0.326-0.185,0.5s-0.085,0.348-0.108,0.522
			c-0.024,0.173-0.035,0.339-0.035,0.494c0,0.123,0.01,0.235,0.032,0.337c0.021,0.102,0.055,0.188,0.101,0.258
			c0.045,0.071,0.104,0.125,0.174,0.163c0.07,0.039,0.156,0.058,0.258,0.058c0.159,0,0.322-0.048,0.489-0.145
			c0.167-0.096,0.322-0.226,0.468-0.391c0.145-0.165,0.272-0.358,0.383-0.579c0.11-0.222,0.191-0.457,0.242-0.707L221.843,54.28z"/>
		<path class="st3" d="M232.317,57.367c-0.015,0.084-0.043,0.158-0.085,0.223c-0.041,0.065-0.09,0.12-0.146,0.163
			c-0.056,0.044-0.117,0.075-0.185,0.096c-0.067,0.02-0.137,0.03-0.209,0.03h-0.609c-0.13,0-0.237-0.013-0.32-0.038
			c-0.084-0.026-0.155-0.071-0.215-0.137c-0.06-0.064-0.113-0.153-0.16-0.266c-0.048-0.112-0.097-0.256-0.146-0.43l-1.039-3.142
			c-0.079-0.243-0.153-0.487-0.22-0.734c-0.067-0.246-0.132-0.49-0.193-0.733h-0.011c-0.036,0.286-0.078,0.568-0.125,0.845
			c-0.047,0.277-0.1,0.556-0.157,0.835l-0.718,3.593c-0.007,0.036-0.024,0.069-0.052,0.098c-0.027,0.029-0.067,0.053-0.122,0.071
			c-0.055,0.018-0.124,0.032-0.209,0.043c-0.086,0.011-0.191,0.017-0.318,0.017s-0.231-0.006-0.312-0.017s-0.145-0.025-0.188-0.043
			c-0.043-0.019-0.071-0.042-0.084-0.071c-0.013-0.028-0.014-0.062-0.003-0.098l1.267-6.327c0.032-0.17,0.106-0.298,0.223-0.383
			c0.116-0.086,0.246-0.128,0.392-0.128h0.744c0.12,0,0.223,0.014,0.308,0.041c0.085,0.026,0.157,0.07,0.217,0.13
			c0.061,0.06,0.112,0.137,0.158,0.231c0.045,0.094,0.088,0.21,0.128,0.348l1.049,3.169c0.068,0.203,0.131,0.404,0.188,0.604
			c0.056,0.199,0.115,0.398,0.177,0.598h0.011c0.04-0.261,0.084-0.53,0.133-0.807c0.049-0.277,0.099-0.547,0.149-0.808l0.669-3.315
			c0.008-0.036,0.023-0.068,0.049-0.096s0.064-0.049,0.117-0.065c0.053-0.016,0.12-0.028,0.204-0.037
			c0.083-0.01,0.188-0.014,0.314-0.014c0.127,0,0.232,0.004,0.315,0.014c0.084,0.009,0.146,0.021,0.19,0.037
			c0.044,0.017,0.072,0.038,0.087,0.065s0.019,0.06,0.011,0.096L232.317,57.367z"/>
		<path class="st3" d="M238.764,53.899c0,0.261-0.059,0.496-0.177,0.704s-0.301,0.388-0.549,0.538s-0.563,0.266-0.946,0.345
			c-0.382,0.08-0.838,0.12-1.366,0.12h-0.501c-0.015,0.083-0.024,0.166-0.032,0.247c-0.007,0.082-0.011,0.157-0.011,0.226
			c0,0.294,0.076,0.515,0.229,0.663c0.152,0.149,0.396,0.224,0.733,0.224c0.239,0,0.454-0.018,0.645-0.052
			c0.189-0.035,0.356-0.073,0.5-0.114c0.143-0.042,0.262-0.08,0.355-0.114c0.095-0.035,0.163-0.052,0.207-0.052
			c0.043,0,0.074,0.013,0.092,0.038c0.019,0.025,0.027,0.065,0.027,0.119c0,0.062-0.005,0.133-0.016,0.212
			c-0.012,0.08-0.026,0.159-0.047,0.237c-0.02,0.077-0.045,0.15-0.076,0.22c-0.03,0.068-0.065,0.121-0.105,0.157
			c-0.044,0.044-0.123,0.087-0.239,0.131c-0.116,0.043-0.256,0.083-0.418,0.119c-0.164,0.036-0.347,0.066-0.55,0.09
			s-0.409,0.036-0.62,0.036c-0.348,0-0.65-0.037-0.91-0.109c-0.259-0.072-0.476-0.183-0.649-0.331
			c-0.174-0.149-0.304-0.338-0.391-0.568c-0.088-0.23-0.131-0.503-0.131-0.818c0-0.242,0.022-0.503,0.067-0.78
			c0.046-0.276,0.119-0.551,0.221-0.82s0.231-0.528,0.391-0.774c0.16-0.246,0.353-0.463,0.58-0.649
			c0.226-0.187,0.487-0.336,0.785-0.449c0.297-0.111,0.636-0.168,1.016-0.168c0.33,0,0.614,0.039,0.852,0.117
			c0.236,0.077,0.432,0.181,0.584,0.31s0.266,0.275,0.34,0.44S238.764,53.726,238.764,53.899z M237.421,54.003
			c0-0.145-0.057-0.266-0.171-0.361s-0.28-0.145-0.497-0.145c-0.182,0-0.344,0.033-0.487,0.098
			c-0.143,0.065-0.269,0.153-0.377,0.264c-0.109,0.111-0.202,0.241-0.28,0.392s-0.141,0.311-0.188,0.481h0.456
			c0.29,0,0.533-0.02,0.729-0.058c0.196-0.038,0.354-0.09,0.473-0.154c0.12-0.065,0.207-0.143,0.262-0.231
			C237.394,54.199,237.421,54.104,237.421,54.003z"/>
		<path class="st3" d="M242.916,52.883c0,0.037-0.003,0.083-0.011,0.139c-0.007,0.057-0.018,0.117-0.03,0.183
			c-0.012,0.064-0.029,0.13-0.051,0.195c-0.022,0.065-0.047,0.124-0.074,0.177c-0.026,0.053-0.058,0.096-0.092,0.13
			c-0.035,0.035-0.071,0.052-0.111,0.052h-1.061l-0.456,2.278c-0.012,0.054-0.021,0.118-0.03,0.192s-0.014,0.135-0.014,0.183
			c0,0.145,0.035,0.251,0.104,0.317c0.068,0.067,0.178,0.101,0.326,0.101c0.087,0,0.161-0.006,0.223-0.019s0.115-0.027,0.16-0.044
			c0.046-0.016,0.084-0.03,0.117-0.043c0.032-0.013,0.063-0.02,0.093-0.02c0.028,0,0.053,0.014,0.073,0.041
			c0.02,0.027,0.029,0.071,0.029,0.133c0,0.069-0.007,0.147-0.021,0.234s-0.033,0.171-0.057,0.252
			c-0.023,0.082-0.05,0.156-0.079,0.224c-0.029,0.066-0.06,0.116-0.093,0.149c-0.032,0.032-0.081,0.063-0.146,0.093
			c-0.065,0.028-0.143,0.054-0.23,0.075c-0.089,0.022-0.185,0.039-0.286,0.052s-0.203,0.02-0.304,0.02
			c-0.218,0-0.409-0.022-0.574-0.068c-0.164-0.045-0.303-0.117-0.416-0.215c-0.112-0.098-0.196-0.223-0.252-0.375
			c-0.057-0.152-0.085-0.337-0.085-0.555c0-0.039,0.002-0.086,0.006-0.138c0.004-0.053,0.01-0.108,0.02-0.166
			c0.009-0.058,0.018-0.117,0.026-0.177c0.01-0.06,0.02-0.113,0.03-0.16l0.473-2.365h-0.587c-0.047,0-0.081-0.015-0.104-0.046
			c-0.021-0.03-0.032-0.09-0.032-0.177c0-0.062,0.006-0.142,0.019-0.241s0.034-0.198,0.062-0.294
			c0.029-0.096,0.067-0.179,0.114-0.247c0.048-0.069,0.104-0.104,0.169-0.104h0.581l0.218-1.082
			c0.007-0.036,0.024-0.068,0.052-0.098s0.068-0.053,0.125-0.073c0.056-0.02,0.129-0.034,0.218-0.044
			c0.088-0.009,0.2-0.014,0.334-0.014c0.131,0,0.239,0.005,0.326,0.014c0.087,0.01,0.154,0.024,0.201,0.044
			c0.047,0.021,0.078,0.044,0.095,0.073s0.021,0.062,0.014,0.098l-0.217,1.082h1.049c0.062,0,0.103,0.02,0.125,0.06
			C242.905,52.749,242.916,52.807,242.916,52.883z"/>
		<path class="st3" d="M251.217,52.796c0,0.055-0.008,0.112-0.022,0.174s-0.029,0.114-0.043,0.158
			c-0.135,0.392-0.282,0.783-0.443,1.177c-0.161,0.393-0.337,0.781-0.527,1.166c-0.19,0.384-0.394,0.761-0.611,1.131
			c-0.218,0.369-0.449,0.727-0.696,1.07c-0.032,0.051-0.075,0.092-0.127,0.122c-0.053,0.031-0.116,0.055-0.19,0.071
			c-0.074,0.016-0.159,0.026-0.253,0.029c-0.095,0.004-0.203,0.006-0.326,0.006c-0.152,0-0.277-0.005-0.375-0.014
			s-0.173-0.024-0.226-0.046c-0.053-0.022-0.089-0.052-0.108-0.09c-0.021-0.038-0.032-0.086-0.035-0.145l-0.251-2.989l-1.337,2.979
			c-0.029,0.062-0.061,0.112-0.095,0.152c-0.035,0.04-0.085,0.07-0.152,0.093c-0.067,0.021-0.156,0.037-0.267,0.046
			s-0.254,0.014-0.432,0.014c-0.174,0-0.316-0.005-0.427-0.014c-0.111-0.009-0.196-0.024-0.256-0.046
			c-0.06-0.022-0.102-0.052-0.125-0.09s-0.037-0.086-0.04-0.145l-0.419-4.387c-0.004-0.036-0.007-0.077-0.009-0.125
			c-0.001-0.047-0.002-0.089-0.002-0.125c0-0.068,0.007-0.125,0.021-0.168c0.015-0.044,0.047-0.079,0.098-0.106
			c0.051-0.026,0.124-0.047,0.221-0.06c0.096-0.013,0.227-0.019,0.394-0.019c0.142,0,0.254,0.003,0.337,0.011
			c0.083,0.007,0.147,0.02,0.193,0.038c0.045,0.018,0.075,0.042,0.09,0.073c0.015,0.03,0.021,0.067,0.021,0.111l0.233,3.565
			l-0.005,0.065l0.032-0.065l1.598-3.565c0.019-0.044,0.041-0.081,0.068-0.111c0.027-0.031,0.067-0.056,0.12-0.073
			c0.052-0.019,0.121-0.031,0.206-0.038c0.085-0.008,0.191-0.011,0.318-0.011c0.134,0,0.242,0.004,0.326,0.013
			c0.083,0.01,0.148,0.022,0.195,0.039c0.047,0.016,0.08,0.037,0.098,0.064c0.019,0.027,0.029,0.06,0.033,0.096l0.282,3.576
			l0.006,0.06l0.032-0.06c0.134-0.231,0.269-0.489,0.405-0.771c0.136-0.283,0.269-0.578,0.399-0.887
			c0.13-0.308,0.253-0.623,0.369-0.945s0.222-0.64,0.315-0.951c0.008-0.047,0.025-0.085,0.055-0.114
			c0.028-0.028,0.072-0.053,0.13-0.07c0.058-0.019,0.133-0.031,0.224-0.038c0.09-0.008,0.206-0.011,0.348-0.011
			c0.134,0,0.242,0.003,0.326,0.011c0.083,0.007,0.147,0.018,0.192,0.032c0.046,0.015,0.075,0.032,0.09,0.055
			C251.209,52.736,251.217,52.764,251.217,52.796z"/>
		<path class="st3" d="M256.608,54.465c0,0.261-0.024,0.529-0.073,0.805s-0.126,0.544-0.231,0.807
			c-0.104,0.263-0.24,0.51-0.404,0.74c-0.165,0.229-0.362,0.433-0.593,0.608s-0.494,0.314-0.791,0.416
			c-0.297,0.101-0.632,0.152-1.006,0.152c-0.366,0-0.682-0.043-0.948-0.128c-0.267-0.086-0.488-0.211-0.666-0.375
			c-0.177-0.165-0.31-0.368-0.396-0.609c-0.087-0.24-0.131-0.518-0.131-0.829c0-0.261,0.024-0.529,0.074-0.804
			c0.049-0.276,0.125-0.544,0.23-0.805c0.105-0.262,0.24-0.509,0.405-0.742c0.164-0.233,0.362-0.438,0.592-0.611
			c0.23-0.174,0.494-0.312,0.791-0.413s0.633-0.152,1.006-0.152c0.366,0,0.683,0.043,0.948,0.128
			c0.267,0.085,0.488,0.21,0.666,0.375s0.31,0.368,0.396,0.608C256.564,53.877,256.608,54.153,256.608,54.465z M255.195,54.557
			c0-0.151-0.016-0.286-0.046-0.404c-0.031-0.117-0.082-0.218-0.152-0.299c-0.071-0.082-0.161-0.145-0.272-0.188
			c-0.11-0.044-0.245-0.065-0.404-0.065c-0.182,0-0.345,0.035-0.489,0.105c-0.146,0.071-0.274,0.166-0.389,0.286
			c-0.114,0.119-0.213,0.258-0.297,0.415c-0.083,0.158-0.151,0.324-0.206,0.498s-0.095,0.351-0.12,0.53
			c-0.024,0.179-0.037,0.351-0.037,0.514c0,0.151,0.015,0.287,0.046,0.407c0.03,0.12,0.081,0.22,0.152,0.302
			c0.07,0.081,0.161,0.145,0.271,0.188s0.245,0.065,0.404,0.065c0.182,0,0.345-0.036,0.489-0.106c0.146-0.07,0.275-0.167,0.39-0.288
			c0.113-0.121,0.213-0.261,0.296-0.418c0.083-0.158,0.152-0.325,0.206-0.5c0.055-0.176,0.095-0.353,0.12-0.53
			S255.195,54.72,255.195,54.557z"/>
		<path class="st3" d="M261.152,52.758c0,0.025-0.003,0.071-0.011,0.136c-0.007,0.065-0.019,0.142-0.032,0.229
			c-0.015,0.087-0.033,0.177-0.055,0.27c-0.021,0.092-0.046,0.178-0.073,0.258s-0.058,0.145-0.093,0.196
			c-0.034,0.05-0.071,0.075-0.111,0.075c-0.032,0-0.065-0.006-0.098-0.019s-0.068-0.025-0.108-0.038s-0.084-0.025-0.131-0.038
			s-0.102-0.02-0.163-0.02c-0.123,0-0.254,0.048-0.394,0.142c-0.14,0.095-0.273,0.219-0.4,0.373
			c-0.126,0.153-0.239,0.333-0.339,0.538c-0.1,0.204-0.172,0.419-0.215,0.644l-0.435,2.18c-0.008,0.036-0.025,0.068-0.052,0.096
			c-0.027,0.026-0.069,0.049-0.125,0.067c-0.057,0.019-0.13,0.032-0.221,0.041s-0.201,0.014-0.331,0.014
			c-0.135,0-0.244-0.005-0.329-0.014s-0.152-0.022-0.201-0.041s-0.081-0.041-0.095-0.067c-0.015-0.027-0.019-0.06-0.012-0.096
			l0.968-4.854c0.008-0.036,0.023-0.068,0.049-0.096s0.062-0.049,0.111-0.064c0.049-0.017,0.112-0.029,0.19-0.039
			c0.078-0.009,0.171-0.013,0.28-0.013c0.112,0,0.203,0.004,0.274,0.013c0.07,0.01,0.126,0.022,0.166,0.039
			c0.04,0.016,0.065,0.037,0.079,0.064c0.012,0.027,0.015,0.06,0.008,0.096l-0.152,0.771c0.087-0.155,0.188-0.299,0.302-0.43
			c0.114-0.13,0.235-0.243,0.364-0.339c0.128-0.097,0.262-0.172,0.399-0.226c0.138-0.055,0.273-0.082,0.407-0.082
			c0.055,0,0.109,0.004,0.166,0.011s0.108,0.017,0.157,0.027c0.05,0.011,0.093,0.024,0.131,0.041
			c0.038,0.016,0.067,0.033,0.09,0.052C261.142,52.677,261.152,52.711,261.152,52.758z"/>
		<path class="st3" d="M266.35,52.812c0,0.058-0.025,0.126-0.074,0.204c-0.049,0.077-0.129,0.177-0.242,0.296l-1.712,1.614
			l1.114,2.337c0.036,0.088,0.062,0.163,0.076,0.229c0.015,0.065,0.022,0.116,0.022,0.152c0,0.044-0.013,0.082-0.036,0.114
			s-0.063,0.06-0.119,0.082c-0.057,0.021-0.133,0.037-0.229,0.046s-0.217,0.014-0.361,0.014c-0.146,0-0.262-0.004-0.351-0.011
			c-0.089-0.008-0.157-0.021-0.207-0.038c-0.049-0.019-0.085-0.042-0.108-0.071c-0.023-0.028-0.041-0.064-0.052-0.108l-1.146-2.555
			l-0.511,2.565c-0.012,0.036-0.03,0.068-0.058,0.096c-0.027,0.026-0.069,0.049-0.125,0.067s-0.13,0.032-0.22,0.041
			c-0.091,0.009-0.201,0.014-0.332,0.014c-0.134,0-0.244-0.005-0.329-0.014s-0.151-0.021-0.198-0.038s-0.078-0.038-0.095-0.065
			s-0.021-0.059-0.014-0.095l1.435-7.153c0.008-0.036,0.023-0.069,0.05-0.098c0.024-0.029,0.066-0.054,0.124-0.074
			c0.059-0.02,0.132-0.035,0.221-0.046s0.2-0.016,0.334-0.016c0.135,0,0.244,0.005,0.329,0.016s0.151,0.026,0.198,0.046
			c0.047,0.021,0.078,0.045,0.093,0.074c0.015,0.028,0.018,0.062,0.011,0.098l-0.848,4.256l1.814-1.94
			c0.037-0.044,0.076-0.081,0.117-0.111c0.042-0.031,0.096-0.056,0.16-0.073c0.065-0.019,0.145-0.031,0.237-0.038
			c0.092-0.008,0.207-0.011,0.345-0.011c0.134,0,0.246,0.003,0.337,0.011c0.091,0.007,0.161,0.019,0.212,0.035
			c0.051,0.016,0.086,0.037,0.106,0.062C266.339,52.751,266.35,52.779,266.35,52.812z"/>
	</g>
	<g>
		<rect x="79.963" y="18.088" class="st1" width="4.506" height="25.71"/>
		<path class="st1" d="M88.164,43.799V28.129h4.506v15.669H88.164z"/>
		<path class="st1" d="M96.715,43.799V28.129h4.506v1.71c0.408-0.58,0.99-1.053,1.75-1.415c0.758-0.362,1.561-0.565,2.405-0.606
			c0.059-0.021,0.125-0.03,0.197-0.03c0.073,0,0.152,0,0.241,0c1.107,0,2.106,0.316,2.996,0.948
			c0.889,0.632,1.334,1.663,1.334,3.093v11.969h-4.462V32.296c0-0.581-0.226-1.026-0.678-1.337c-0.452-0.311-0.956-0.466-1.51-0.466
			c-0.554-0.021-1.071,0.124-1.553,0.436c-0.481,0.311-0.722,0.777-0.722,1.399v11.472H96.715z"/>
		<polygon class="st1" points="113.591,43.799 113.591,18.088 118.097,18.088 118.097,35 123.259,28.129 127.721,28.129 122.208,35 
			128.771,43.799 123.958,43.799 118.097,35.466 118.097,43.799 		"/>
		<rect x="88.164" y="23.129" class="st1" width="4.506" height="3.212"/>
		<path class="st1" d="M139.296,40.629v2.673c-0.729,0.31-1.422,0.528-2.078,0.653c-0.655,0.124-1.275,0.186-1.858,0.186
			c-2.13,0-3.733-0.776-4.812-2.332c-1.081-1.555-1.619-3.491-1.619-5.813c0-3.213,0.671-5.357,2.014-6.435
			c1.34-1.079,2.871-1.618,4.593-1.618c0.642,0,1.275,0.041,1.903,0.125c0.626,0.083,1.247,0.197,1.858,0.342v3.141
			c-0.351-0.229-0.743-0.426-1.18-0.592c-0.438-0.166-0.891-0.249-1.357-0.249c-0.846,0-1.611,0.378-2.298,1.135
			c-0.685,0.757-1.027,2.141-1.027,4.151c0,1.782,0.299,3.121,0.897,4.01c0.598,0.891,1.406,1.336,2.428,1.336
			c0.379,0,0.78-0.056,1.203-0.169c0.422-0.116,0.867-0.285,1.334-0.515V40.629z"/>
		<path class="st1" d="M158.633,43.799V28.129h4.506v1.71c0.409-0.58,0.992-1.053,1.749-1.415c0.76-0.362,1.562-0.565,2.407-0.606
			c0.059-0.021,0.125-0.03,0.197-0.03s0.153,0,0.24,0c1.107,0,2.108,0.316,2.997,0.948s1.334,1.663,1.334,3.093v11.969h-4.462
			V32.296c0-0.581-0.227-1.026-0.678-1.337c-0.453-0.311-0.956-0.466-1.51-0.466c-0.555-0.021-1.072,0.124-1.554,0.436
			c-0.48,0.311-0.722,0.777-0.722,1.399v11.472H158.633z"/>
		<path class="st1" d="M175.858,43.799V28.129h4.506v1.71c0.408-0.58,0.992-1.053,1.75-1.415c0.759-0.362,1.561-0.565,2.407-0.606
			c0.058-0.021,0.123-0.03,0.196-0.03s0.153,0,0.239,0c1.109,0,2.108,0.316,2.999,0.948c0.89,0.632,1.334,1.663,1.334,3.093v11.969
			h-4.462V32.296c0-0.581-0.229-1.026-0.679-1.337c-0.453-0.311-0.956-0.466-1.51-0.466c-0.554-0.021-1.072,0.124-1.554,0.436
			c-0.479,0.311-0.722,0.777-0.722,1.399v11.472H175.858z"/>
		<path class="st1" d="M196.541,36.71c0,1.471,0.248,2.617,0.743,3.436c0.496,0.817,1.167,1.228,2.013,1.228
			c0.7,0,1.276-0.201,1.729-0.607c0.451-0.403,0.678-1.093,0.678-2.066l4.156-0.032c-0.35,2.344-1.145,3.824-2.385,4.446
			c-1.239,0.623-2.632,0.933-4.178,0.933c-2.042,0-3.696-0.637-4.965-1.912c-1.27-1.274-1.903-3.32-1.903-6.139
			c0-2.342,0.503-4.274,1.509-5.798c1.007-1.524,2.793-2.286,5.359-2.286c2.071,0,3.682,0.617,4.834,1.85s1.743,3.176,1.771,5.829
			c0,0.186,0,0.373,0,0.56c0,0.186-0.014,0.384-0.043,0.591L196.541,36.71z M196.541,34.503h5.162c0-0.063,0-0.13,0-0.203
			c0-0.072,0-0.139,0-0.201c0.029-1.162-0.22-2.053-0.745-2.674c-0.523-0.621-1.106-0.933-1.749-0.933c-0.029,0-0.05,0-0.065,0
			c-0.015,0-0.036,0-0.065,0c-0.642,0.022-1.225,0.362-1.75,1.026c-0.524,0.664-0.787,1.669-0.787,3.015V34.503z"/>
		<path class="st1" d="M219.268,40.629v2.673c-0.729,0.31-1.422,0.528-2.078,0.653c-0.657,0.124-1.275,0.186-1.859,0.186
			c-2.129,0-3.732-0.776-4.812-2.332c-1.08-1.555-1.62-3.491-1.62-5.813c0-3.213,0.672-5.357,2.014-6.435
			c1.341-1.079,2.873-1.618,4.594-1.618c0.64,0,1.276,0.041,1.902,0.125c0.627,0.083,1.246,0.197,1.859,0.342v3.141
			c-0.35-0.229-0.743-0.426-1.182-0.592c-0.438-0.166-0.889-0.249-1.356-0.249c-0.846,0-1.61,0.378-2.295,1.135
			c-0.687,0.757-1.03,2.141-1.03,4.151c0,1.782,0.3,3.121,0.897,4.01c0.599,0.891,1.408,1.336,2.428,1.336
			c0.38,0,0.781-0.056,1.203-0.169c0.424-0.116,0.868-0.285,1.335-0.515V40.629z"/>
		<path class="st1" d="M249.714,43.799V28.129h4.156v1.959c0.669-0.705,1.399-1.244,2.187-1.617
			c0.788-0.373,1.778-0.559,2.976-0.559v2.674c-2.072,0.02-3.449,0.337-4.135,0.947c-0.686,0.612-1.027,1.281-1.027,2.006v10.259
			H249.714z"/>
		<path class="st0" d="M223.501,30.834h-2.056v-2.705h2.056v-4.166h4.462v4.166h2.1v2.705h-2.1v9.218c0,0-0.089,1.182,0.426,1.289
			c0.369,0.079,0.752-0.056,1.175-0.169c0.423-0.116,0.868-0.285,1.334-0.515v2.644c-0.728,0.31-1.421,0.528-2.078,0.653
			c-0.654,0.124-1.275,0.186-1.857,0.186c-1.386,0-2.543-0.637-3.175-1.943c-0.175-0.363-0.304-0.99-0.304-0.99L223.501,30.834z"/>
		<g>
			<g>
				<path class="st1" d="M244.925,29.901c-1.108-1.344-2.77-2.02-4.991-2.02c-0.085,0.023-0.173,0.034-0.261,0.034h-0.304
					c-0.729,0-1.41,0.07-2.035,0.217c0.904,0.418,1.532,1.338,1.532,2.4c0,0.043,0,0.093-0.005,0.137
					c0.158-0.039,0.328-0.05,0.508-0.05c1.37,0,2.171,0.528,2.405,1.583c0.233,1.056,0.347,2.319,0.347,3.794
					c0,1.116-0.08,2.089-0.238,2.922c0.293-0.119,0.615-0.178,0.948-0.178c1.377,0,2.513,1.056,2.639,2.394
					c0.744-1.316,1.116-3.032,1.116-5.138C246.586,33.28,246.036,31.25,244.925,29.901z M240.18,41.395c0-0.038,0-0.077,0.005-0.113
					c-0.245,0.059-0.517,0.093-0.815,0.093c-1.024,0-1.737-0.528-2.145-1.585c-0.402-1.049-0.604-2.318-0.609-3.793
					c0-1.153,0.076-2.116,0.24-2.89c-0.208,0.054-0.42,0.082-0.643,0.082c-1.432,0-2.597-1.132-2.645-2.551
					c-0.742,1.23-1.111,3.003-1.111,5.327v0.032c0,2.568,0.555,4.555,1.66,5.954c1.11,1.397,2.857,2.095,5.252,2.095
					c0.87,0,1.659-0.076,2.361-0.239C240.816,43.392,240.18,42.467,240.18,41.395z"/>
			</g>
		</g>
		<g>
			<g>
				<path class="st1" d="M154.417,29.901c-1.105-1.344-2.77-2.02-4.986-2.02c-0.085,0.023-0.173,0.034-0.26,0.034h-0.31
					c-0.73,0-1.404,0.07-2.035,0.217c0.907,0.418,1.534,1.333,1.534,2.4c0,0.043,0,0.087-0.005,0.131
					c0.156-0.033,0.325-0.044,0.506-0.044c1.37,0,2.176,0.528,2.41,1.583c0.233,1.056,0.349,2.319,0.349,3.794
					c0,1.116-0.082,2.089-0.245,2.922c0.294-0.114,0.616-0.178,0.953-0.178c1.371,0,2.503,1.043,2.639,2.382
					c0.746-1.315,1.116-3.025,1.116-5.126C156.083,33.28,155.526,31.25,154.417,29.901z M149.672,41.395
					c0-0.038,0-0.077,0.005-0.113c-0.246,0.059-0.518,0.093-0.815,0.093c-1.018,0-1.73-0.528-2.14-1.585
					c-0.402-1.049-0.608-2.318-0.615-3.793c0-1.153,0.082-2.116,0.24-2.89c-0.202,0.054-0.413,0.082-0.637,0.082
					c-1.432,0-2.597-1.126-2.651-2.547c-0.739,1.23-1.11,2.999-1.11,5.323v0.032c0,2.568,0.557,4.555,1.666,5.954
					c1.104,1.397,2.858,2.095,5.247,2.095c0.87,0,1.659-0.076,2.361-0.239C150.309,43.386,149.672,42.467,149.672,41.395z"/>
			</g>
		</g>
		<g>
			<circle class="st0" cx="236.211" cy="30.545" r="2.531"/>
			<path class="st0" d="M236.211,30.545"/>
		</g>
		<g>
			<circle class="st0" cx="242.85" cy="41.399" r="2.529"/>
			<path class="st0" d="M242.85,41.399"/>
		</g>
		<circle class="st0" cx="152.31" cy="41.378" r="2.529"/>
		<circle class="st0" cx="145.715" cy="30.546" r="2.529"/>
		<g>
			<g>
				<path class="st2" d="M236.213,30.534"/>
			</g>
			<g>
				<path class="st2" d="M242.831,41.395"/>
			</g>
		</g>
		<g>
			<path class="st1" d="M54.192,65.689C48.816,69.055,42.461,71,35.65,71c-19.331,0-35-15.67-35-34.998
				c0-11.162,5.224-21.104,13.361-27.512c0.649,1.117,1.63,2.019,2.807,2.57v28.104h14.347c-0.576,2.237-0.863,4.901-0.863,7.988
				c0,6.854,2.303,11.211,5.372,13.943c1.319,1.175,5.187,3.58,9.728,3.667c0.434,0.009,0.854-0.006,1.262-0.022
				c0.407-0.017,0.8-0.038,1.181-0.07c0.812-0.062,1.642-0.146,2.484-0.256c0.809-0.106,1.581-0.235,2.314-0.384h0.002
				C53.057,64.673,53.583,65.233,54.192,65.689z"/>
			<path class="st1" d="M70.648,36.002c0,8.003-2.686,15.378-7.206,21.274c-1.118-1.839-3.141-3.066-5.448-3.066
				c-3.297,0-6.009,2.506-6.335,5.72c-0.408,0.091-0.84,0.175-1.292,0.255c-0.869,0.156-1.79,0.221-2.769,0.189
				c-0.326,0-0.665-0.007-1.018-0.022c-0.353-0.018-0.691-0.058-1.018-0.119c-2.387-0.312-4.559-1.423-6.512-3.34
				c-1.954-1.914-3.463-5.278-3.463-10.104c0-4.982,1.414-8.587,3.179-10.799c1.763-2.212,4.282-3.429,7.595-3.396
				c0.866,0,1.858,0.072,2.806,0.21c0.951,0.141,1.886,0.328,3.04,0.79l-0.002-0.065c0.471,0.226,0.94,0.476,1.413,0.75v-4.606
				c-2.896-1.076-5.489-1.615-7.786-1.615c-3.057,0-5.86,0.825-8.405,2.477c-0.762,0.496-1.473,1.062-2.129,1.702
				c-0.002-0.002-0.002,0-0.004,0.001c-0.088,0.074-0.18,0.148-0.271,0.224c-0.566,0.463-1.082,1-1.547,1.615H21.858V11.221
				c2.361-0.934,4.032-3.236,4.032-5.927c0-0.978-0.22-1.904-0.612-2.731C28.555,1.546,32.04,1,35.65,1
				C54.98,1,70.648,16.671,70.648,36.002z"/>
		</g>
	</g>
</g>
</svg>
